<?xml version="1.0" standalone="no"?>
<!DOCTYPE svg PUBLIC "-//W3C//DTD SVG 20010904//EN"
 "http://www.w3.org/TR/2001/REC-SVG-20010904/DTD/svg10.dtd">
<svg version="1.0" xmlns="http://www.w3.org/2000/svg"
 width="260.000000pt" height="260.000000pt" viewBox="0 0 260.000000 260.000000"
 preserveAspectRatio="xMidYMid meet">
<metadata>
Created by potrace 1.11, written by Peter Selinger 2001-2013
</metadata>
<g transform="translate(0.000000,260.000000) scale(0.100000,-0.100000)"
fill="#000000" stroke="none">
<path d="M0 1300 l0 -1300 1300 0 1300 0 0 1300 0 1300 -1300 0 -1300 0 0
-1300z m1280 1027 c0 -8 9 -22 19 -31 19 -17 21 -17 54 8 l34 26 28 -30 c34
-35 33 -35 65 -9 14 11 19 18 13 14 -7 -3 -13 -1 -13 4 0 6 3 11 8 11 11 0 39
-20 28 -20 -5 0 1 -9 14 -20 29 -25 76 -26 89 -2 9 16 10 16 16 0 6 -16 24
-18 166 -18 135 0 159 -2 159 -15 0 -12 -13 -15 -60 -15 l-60 0 0 -46 c0 -34
3 -43 13 -37 15 9 37 13 37 6 0 -3 -8 -12 -17 -19 -11 -8 -13 -13 -5 -14 6 0
12 -6 12 -14 0 -17 21 -26 60 -26 24 0 28 -4 34 -40 6 -36 9 -40 36 -40 17 0
30 5 30 11 0 5 5 7 10 4 6 -4 8 -11 5 -16 -4 -5 -1 -9 5 -9 6 0 8 -14 4 -39
-6 -37 -5 -39 25 -46 17 -3 35 -4 40 -1 5 4 12 2 16 -4 3 -5 1 -10 -5 -10 -6
0 -8 -10 -5 -22 3 -13 7 -33 8 -45 1 -21 35 -39 65 -34 15 2 15 -1 -3 -35 -18
-34 -19 -54 -4 -54 6 0 9 -9 6 -20 -4 -16 -1 -18 24 -13 32 6 34 4 18 -31 -13
-29 -4 -76 14 -76 28 0 37 -22 22 -57 -18 -42 -3 -76 30 -67 20 6 20 6 0 -9
-14 -11 -22 -12 -27 -4 -12 19 -16 3 -6 -23 7 -20 11 -22 18 -10 5 8 10 10 10
4 0 -6 -6 -17 -14 -23 -13 -11 -11 -51 3 -51 3 0 14 -7 25 -15 17 -13 17 -15
-12 -46 -26 -28 -29 -36 -19 -52 37 -60 37 -61 16 -69 -21 -8 -68 -57 -69 -72
0 -4 8 -6 18 -4 11 3 23 -2 30 -12 9 -15 7 -21 -13 -34 -13 -9 -29 -16 -35
-16 -12 0 -12 -2 0 -35 5 -14 14 -23 20 -20 11 7 12 3 4 -18 -3 -9 -13 -13
-26 -9 -17 4 -20 2 -15 -11 4 -11 1 -17 -7 -17 -27 0 -36 -24 -21 -54 21 -40
20 -42 -30 -55 -43 -11 -44 -12 -39 -44 3 -17 7 -38 10 -44 2 -9 -8 -13 -28
-13 -17 0 -40 -8 -51 -17 -18 -17 -19 -17 -28 0 -15 26 -28 20 -26 -12 1 -22
5 -27 15 -19 9 8 12 6 12 -6 0 -9 5 -16 10 -16 12 0 13 -10 1 -29 -7 -11 -13
-12 -23 -4 -16 12 -53 3 -54 -14 -1 -7 -2 -25 -2 -39 -2 -24 -5 -26 -36 -20
-29 6 -37 3 -46 -14 -6 -12 -9 -27 -7 -35 9 -23 -12 -33 -51 -24 -20 4 -37 7
-38 6 -1 -1 -9 -19 -18 -41 -12 -28 -20 -37 -33 -33 -10 2 -24 6 -32 8 -9 2
-17 -5 -19 -16 -15 -69 -77 -101 -180 -91 -37 4 -80 7 -96 7 -16 0 -42 11 -59
25 l-30 26 -27 -29 -26 -28 -182 3 c-107 2 -182 7 -182 12 0 6 15 10 34 10 32
0 34 2 34 38 0 21 -3 44 -7 50 -10 17 -38 5 -44 -20 -8 -28 -30 -17 -41 20
-10 37 -32 47 -71 32 -33 -13 -31 -14 -42 30 -9 33 -12 35 -46 32 -23 -2 -42
2 -52 12 -16 16 -20 31 -6 22 5 -4 7 3 4 15 -4 15 -12 20 -32 17 -35 -3 -51 8
-51 37 0 46 -10 55 -57 55 -42 0 -45 2 -39 22 3 13 6 29 6 36 0 6 7 12 15 12
8 0 15 4 15 9 0 5 9 11 21 14 12 3 18 10 14 16 -4 8 -12 8 -25 1 -30 -16 -31
-12 -4 15 29 29 42 31 51 8 4 -10 23 -35 44 -55 21 -20 43 -46 49 -57 6 -12
17 -21 24 -21 8 0 16 -7 20 -15 3 -8 17 -20 31 -25 14 -5 25 -14 25 -19 0 -5
10 -13 23 -17 12 -4 28 -16 36 -26 7 -11 19 -17 27 -14 16 6 34 -22 27 -42 -4
-11 -2 -11 16 0 26 16 52 2 62 -33 5 -16 7 -6 8 31 l0 55 -82 45 c-97 53 -252
201 -306 292 -84 145 -115 261 -116 440 l0 138 -26 0 c-23 0 -27 -5 -33 -37
-3 -21 -6 -50 -6 -65 0 -34 -10 -35 -39 -4 -16 17 -19 25 -10 28 10 3 10 11 0
36 -14 33 -36 57 -24 26 5 -13 3 -15 -7 -9 -43 27 -67 61 -33 48 14 -5 15 -1
10 33 -3 21 -3 33 0 26 2 -6 10 -9 15 -6 6 4 8 2 4 -4 -3 -6 -3 -13 2 -15 4
-3 12 5 19 19 9 20 8 24 -8 29 -10 4 -19 9 -19 13 0 4 -3 17 -6 29 -4 15 0 25
17 33 20 11 21 10 15 -6 -6 -18 -5 -18 9 0 8 11 15 26 15 33 0 7 3 13 8 13 4
0 13 4 21 9 11 7 9 14 -13 34 -16 15 -23 28 -16 32 5 3 10 0 11 -7 0 -10 2
-10 6 0 2 6 9 12 15 12 7 0 7 -5 -1 -13 -11 -14 -5 -27 11 -27 5 0 7 4 4 9 -8
13 4 42 14 36 5 -3 11 -1 15 5 3 5 1 10 -4 10 -6 0 -11 7 -11 16 0 10 -6 14
-15 10 -8 -3 -15 -1 -15 4 0 6 4 10 10 10 5 0 7 7 4 15 -4 8 1 17 10 21 9 3
13 10 10 15 -9 16 13 10 27 -8 11 -13 11 -17 2 -20 -7 -3 -13 -9 -13 -15 0 -6
8 -7 17 -4 9 4 20 1 25 -6 5 -9 8 -6 8 8 0 12 -7 24 -15 28 -13 5 -13 9 -3 26
10 15 10 24 1 39 -9 15 -9 23 2 37 11 14 14 55 15 162 l0 142 -40 0 c-22 0
-40 5 -40 10 0 7 82 10 249 9 138 0 254 2 259 5 6 3 12 -1 16 -9 8 -21 33 -19
46 5 6 11 7 20 3 20 -4 0 -2 4 6 9 10 6 27 3 52 -10 l38 -19 24 32 c25 32 33
32 74 3 20 -15 23 -14 55 14 36 34 48 38 48 18z m75 3 c3 -5 1 -10 -4 -10 -6
0 -11 5 -11 10 0 6 2 10 4 10 3 0 8 -4 11 -10z m75 -4 c0 -3 -4 -8 -10 -11 -5
-3 -10 -1 -10 4 0 6 5 11 10 11 6 0 10 -2 10 -4z m-360 -26 c0 -5 -4 -10 -10
-10 -5 0 -10 5 -10 10 0 6 5 10 10 10 6 0 10 -4 10 -10z m495 0 c3 -5 1 -10
-4 -10 -6 0 -11 5 -11 10 0 6 2 10 4 10 3 0 8 -4 11 -10z m385 -190 c0 -5 -5
-10 -11 -10 -5 0 -7 5 -4 10 3 6 8 10 11 10 2 0 4 -4 4 -10z m240 -270 c0 -5
-4 -10 -10 -10 -5 0 -10 5 -10 10 0 6 5 10 10 10 6 0 10 -4 10 -10z m-1840
-175 c-7 -9 -15 -13 -17 -11 -6 6 20 36 26 30 2 -2 -2 -10 -9 -19z m1930 -25
c0 -5 -2 -10 -4 -10 -3 0 -8 5 -11 10 -3 6 -1 10 4 10 6 0 11 -4 11 -10z
m-1983 -264 c-5 -16 -24 -18 -30 -2 -4 10 0 14 14 13 10 -1 18 -6 16 -11z m37
-7 c-3 -5 -10 -7 -15 -3 -5 3 -7 10 -3 15 3 5 10 7 15 3 5 -3 7 -10 3 -15z
m2006 -3 c0 -3 -4 -8 -10 -11 -5 -3 -10 -1 -10 4 0 6 5 11 10 11 6 0 10 -2 10
-4z m-1959 -79 c17 -6 30 -74 21 -110 -4 -14 -7 -15 -19 -5 -12 10 -18 9 -28
-5 -7 -9 -17 -17 -24 -17 -6 0 -11 -7 -11 -15 0 -8 -7 -15 -15 -15 -13 0 -14
4 -5 20 6 11 8 24 5 29 -9 15 6 41 24 40 11 0 12 -2 3 -6 -10 -4 -10 -8 -1
-19 14 -17 30 -9 22 12 -3 9 0 20 7 24 16 10 4 50 -16 50 -8 0 -14 -4 -14 -10
0 -5 5 -10 10 -10 15 0 12 -20 -5 -26 -8 -3 -22 1 -31 10 -12 13 -13 20 -4 31
6 8 9 18 6 24 -3 5 -3 16 0 25 5 14 9 14 33 -2 14 -11 33 -21 42 -25z m-101
23 c0 -5 -4 -10 -10 -10 -5 0 -10 5 -10 10 0 6 5 10 10 10 6 0 10 -4 10 -10z
m0 -70 c0 -5 -5 -10 -11 -10 -5 0 -7 5 -4 10 3 6 8 10 11 10 2 0 4 -4 4 -10z
m2055 -20 c3 -5 1 -10 -4 -10 -6 0 -11 5 -11 10 0 6 2 10 4 10 3 0 8 -4 11
-10z m-2050 -50 c3 -5 1 -10 -4 -10 -6 0 -11 5 -11 10 0 6 2 10 4 10 3 0 8 -4
11 -10z m140 -85 c3 -36 11 -65 16 -65 6 0 9 -10 7 -22 -2 -13 5 -30 15 -38
15 -13 16 -20 8 -43 -6 -16 -7 -26 -2 -23 15 9 43 -5 37 -19 -2 -7 4 -21 14
-30 18 -16 34 -55 21 -53 -17 2 -34 -3 -28 -8 9 -9 -19 -34 -37 -34 -10 0 -13
6 -10 15 4 8 12 15 20 15 8 0 14 5 14 10 0 6 -7 10 -15 10 -17 0 -20 16 -5 25
6 3 10 10 10 14 0 11 -39 51 -50 51 -16 0 -11 -19 9 -42 11 -11 18 -25 16 -32
-14 -48 -13 -75 3 -79 11 -3 8 -5 -8 -6 -38 -1 -52 12 -45 42 4 16 12 24 18
20 6 -4 1 9 -11 29 -12 19 -19 38 -16 41 3 3 1 13 -4 23 -9 16 -11 15 -22 -5
-10 -19 -9 -26 6 -42 9 -10 12 -19 7 -19 -6 0 -18 15 -27 34 -18 39 -20 50 -6
41 6 -3 10 -2 10 4 0 5 3 16 6 25 4 11 1 16 -10 16 -9 0 -16 4 -16 10 0 5 -7
7 -16 3 -13 -5 -15 0 -12 26 1 18 -3 35 -9 39 -8 5 5 8 28 9 26 1 39 -3 36
-11 -4 -9 20 -43 24 -34 6 14 4 48 -2 48 -5 0 -9 12 -9 28 0 15 -9 35 -20 45
-23 20 -27 39 -5 31 8 -4 15 -1 15 5 0 6 8 11 19 11 16 0 20 -10 26 -65z
m-125 15 c0 -6 10 -9 23 -8 12 2 23 0 25 -4 1 -5 -1 -8 -4 -7 -4 0 -10 -5 -14
-11 -6 -9 -13 -9 -29 1 -22 14 -29 39 -11 39 6 0 10 -5 10 -10z m1950 -224 c0
-3 -4 -8 -10 -11 -5 -3 -10 -1 -10 4 0 6 5 11 10 11 6 0 10 -2 10 -4z m-1780
-176 c0 -5 -2 -10 -4 -10 -3 0 -8 5 -11 10 -3 6 -1 10 4 10 6 0 11 -4 11 -10z
m1620 -70 c0 -5 -4 -10 -10 -10 -5 0 -10 5 -10 10 0 6 5 10 10 10 6 0 10 -4
10 -10z m-1530 -40 c0 -5 -2 -10 -4 -10 -3 0 -8 5 -11 10 -3 6 -1 10 4 10 6 0
11 -4 11 -10z m1430 -60 c0 -5 -5 -10 -11 -10 -5 0 -7 5 -4 10 3 6 8 10 11 10
2 0 4 -4 4 -10z m-170 -124 c0 -3 -4 -8 -10 -11 -5 -3 -10 -1 -10 4 0 6 5 11
10 11 6 0 10 -2 10 -4z m-970 -26 c0 -5 -4 -10 -10 -10 -5 0 -10 5 -10 10 0 6
5 10 10 10 6 0 10 -4 10 -10z"/>
<path d="M720 2206 c0 -19 6 -37 13 -40 10 -5 10 -7 0 -12 -16 -7 -17 -37 -1
-32 6 2 16 17 21 34 14 42 38 57 54 34 7 -9 10 -28 8 -40 -6 -33 4 -44 25 -25
18 16 20 16 39 -2 l21 -20 -27 -13 c-16 -8 -36 -21 -45 -28 -11 -9 -24 -11
-35 -7 -10 5 -24 7 -30 6 -18 -3 -16 28 2 35 19 8 19 21 0 21 -8 0 -12 -3 -10
-7 2 -3 -5 -14 -16 -23 -16 -14 -19 -30 -19 -97 l0 -80 54 44 c30 24 85 61
123 82 37 20 69 38 71 39 1 1 -2 14 -7 28 -7 19 -15 24 -30 20 -11 -3 -27 3
-40 16 -12 12 -28 21 -37 21 -12 0 -14 4 -7 13 5 6 9 21 9 32 -1 21 -31 32
-98 34 -37 1 -38 0 -38 -33z m45 -166 c4 -6 1 -18 -6 -26 -10 -12 -14 -12 -20
-2 -5 7 -9 19 -9 26 0 15 26 16 35 2z"/>
<path d="M1269 2206 c-3 -3 -33 -7 -66 -10 -34 -2 -68 -8 -77 -13 -15 -8 -15
-11 4 -28 18 -16 39 -19 168 -20 118 -2 161 -6 219 -24 94 -27 95 -27 91 12
-2 23 -7 31 -20 29 -9 -1 -19 2 -23 8 -3 5 -19 10 -36 10 -16 0 -29 5 -29 10
0 6 -12 10 -27 10 -41 -1 -142 8 -172 15 -15 3 -29 3 -32 1z"/>
<path d="M904 2155 c-18 -14 -18 -14 4 -8 12 3 22 9 22 14 0 12 -3 11 -26 -6z"/>
<path d="M1840 1990 c0 -41 5 -50 46 -90 60 -59 124 -148 165 -232 18 -38 36
-68 39 -68 3 0 13 14 23 31 13 24 15 35 6 45 -6 8 -9 20 -5 29 3 9 -3 19 -14
25 -11 6 -20 19 -20 30 0 11 -9 24 -20 30 -11 6 -20 17 -20 25 0 8 -9 20 -20
27 -11 7 -20 21 -20 31 0 11 -9 21 -20 24 -11 3 -20 12 -20 19 0 8 -11 20 -25
26 -14 6 -25 17 -25 25 0 7 -8 16 -17 20 -10 3 -26 15 -35 27 -17 21 -18 20
-18 -24z"/>
<path d="M458 1775 c-8 -8 1 -35 12 -35 4 0 11 7 14 16 3 8 2 13 -3 9 -5 -3
-11 0 -13 6 -2 5 -6 7 -10 4z"/>
<path d="M478 1665 c-26 -76 -61 -160 -68 -165 -16 -10 18 -42 41 -38 16 2 25
13 31 36 10 39 6 197 -4 167z"/>
<path d="M2166 1528 c-3 -13 -6 -38 -6 -55 0 -20 -5 -33 -13 -33 -10 0 -13
-33 -12 -137 0 -148 -16 -227 -69 -347 -78 -176 -241 -338 -426 -423 -51 -23
-60 -31 -60 -53 0 -24 35 -70 53 -70 4 0 4 14 0 31 -6 30 -5 31 24 25 26 -6
31 -4 36 14 4 15 11 20 24 17 59 -17 68 -18 51 -7 -29 18 -22 41 9 38 21 -2
28 1 28 16 0 27 25 32 32 7 8 -31 18 -26 21 11 3 38 7 43 35 43 17 0 21 5 19
23 -3 18 2 22 22 22 21 0 26 5 26 25 0 21 4 24 30 22 16 -1 30 -5 30 -9 0 -12
28 -9 36 4 5 7 3 8 -5 4 -12 -8 -51 19 -51 36 0 5 12 13 26 18 19 8 24 15 19
30 -5 15 0 22 19 29 18 8 23 15 19 30 -4 16 -1 21 15 21 24 0 37 16 22 25 -17
10 -11 32 10 38 15 4 20 0 20 -13 0 -44 33 -30 38 15 2 17 8 34 13 39 5 6 9
16 9 24 0 7 -12 0 -26 -18 -21 -24 -29 -28 -40 -19 -11 9 -11 15 -3 25 6 8 16
11 21 8 6 -4 7 8 3 30 -6 28 -4 36 8 36 8 0 20 6 26 14 9 11 7 15 -9 19 -32 8
-14 35 22 33 17 0 33 4 35 11 4 12 -14 12 -33 0 -8 -4 -14 3 -19 20 -4 17 -2
29 7 34 11 7 11 12 -1 30 -12 20 -11 24 3 34 18 13 22 35 6 35 -5 0 -10 9 -10
20 0 11 5 20 10 20 16 0 12 22 -7 36 -26 18 -4 40 25 25 29 -15 32 -14 28 12
-2 12 0 29 4 37 6 12 3 16 -16 18 -15 1 -24 -3 -24 -13 0 -8 -7 -15 -16 -15
-24 0 -12 34 13 38 21 3 42 32 23 32 -6 0 -10 -4 -10 -9 0 -13 -42 -5 -50 9
-4 6 -5 22 -2 36 6 30 -4 32 -12 2z"/>
<path d="M2265 1540 c3 -5 8 -10 11 -10 2 0 4 5 4 10 0 6 -5 10 -11 10 -5 0
-7 -4 -4 -10z"/>
<path d="M365 1470 c-3 -5 -1 -10 4 -10 6 0 11 5 11 10 0 6 -2 10 -4 10 -3 0
-8 -4 -11 -10z"/>
<path d="M2207 1044 c-4 -4 -7 -12 -7 -17 0 -6 3 -7 7 -4 3 4 13 1 21 -5 12
-10 14 -9 11 6 -4 21 -21 31 -32 20z"/>
<path d="M2060 758 c0 -7 4 -19 9 -27 6 -9 9 -5 9 13 0 14 -4 26 -9 26 -5 0
-9 -6 -9 -12z"/>
<path d="M2040 736 c0 -9 5 -16 10 -16 6 0 10 4 10 9 0 6 -4 13 -10 16 -5 3
-10 -1 -10 -9z"/>
<path d="M1200 424 c0 -34 2 -36 25 -30 14 4 34 1 45 -6 17 -11 22 -10 30 2 8
13 13 13 30 2 20 -12 21 -11 18 25 l-3 38 -72 3 -73 3 0 -37z"/>
<path d="M1725 390 c-3 -5 -1 -10 4 -10 6 0 11 5 11 10 0 6 -2 10 -4 10 -3 0
-8 -4 -11 -10z"/>
<path d="M1590 358 c0 -17 2 -18 15 -8 8 7 15 14 15 15 0 2 -7 5 -15 9 -10 4
-15 -1 -15 -16z"/>
<path d="M1200 300 c0 -5 7 -10 16 -10 8 0 12 5 9 10 -3 6 -10 10 -16 10 -5 0
-9 -4 -9 -10z"/>
<path d="M410 956 c0 -2 7 -6 15 -10 8 -3 15 -1 15 4 0 6 -7 10 -15 10 -8 0
-15 -2 -15 -4z"/>
</g>
</svg>
